# Blender 4.1.0
# www.blender.org
g Mug_Cylinder
v 0.000000 0.000000 -1.000000
v 0.000000 2.400000 -0.695336
v 0.433884 0.000000 -0.900969
v 0.301695 2.400000 -0.626476
v 0.781831 0.000000 -0.623490
v 0.543635 2.400000 -0.433535
v 0.974928 0.000000 -0.222521
v 0.677902 2.400000 -0.154727
v 0.974928 0.000000 0.222521
v 0.677902 2.400000 0.154727
v 0.781831 0.000000 0.623490
v 0.543635 2.400000 0.433535
v 0.433884 0.000000 0.900969
v 0.301695 2.400000 0.626476
v 0.000000 0.000000 1.000000
v 0.000000 2.400000 0.695336
v -0.433884 0.000000 0.900969
v -0.301695 2.400000 0.626476
v -0.781831 0.000000 0.623490
v -0.543635 2.400000 0.433535
v -0.974928 0.000000 0.222521
v -0.677902 2.400000 0.154727
v -0.974928 0.000000 -0.222521
v -0.677902 2.400000 -0.154727
v -0.781831 0.000000 -0.623490
v -0.543635 2.400000 -0.433535
v -0.433884 0.000000 -0.900969
v -0.301695 2.400000 -0.626476
v 0.000000 0.800000 -1.088856
v 0.000000 1.600000 -1.088856
v 0.472437 1.600000 -0.981025
v 0.472437 0.800000 -0.981025
v 0.851302 1.600000 -0.678891
v 0.851302 0.800000 -0.678891
v 1.061556 1.600000 -0.242293
v 1.061556 0.800000 -0.242293
v 1.061556 1.600000 0.242293
v 1.061556 0.800000 0.242293
v 0.851302 1.600000 0.678891
v 0.851302 0.800000 0.678891
v 0.472437 1.600000 0.981025
v 0.472437 0.800000 0.981025
v 0.000000 1.600000 1.088856
v 0.000000 0.800000 1.088856
v -0.472437 1.600000 0.981025
v -0.472437 0.800000 0.981025
v -0.851302 1.600000 0.678891
v -0.851302 0.800000 0.678891
v -1.061556 1.600000 0.242293
v -1.061556 0.800000 0.242293
v -1.061556 1.600000 -0.242293
v -1.061556 0.800000 -0.242293
v -0.851302 1.600000 -0.678891
v -0.851302 0.800000 -0.678891
v -0.472437 1.600000 -0.981025
v -0.472437 0.800000 -0.981025
v 0.433884 2.400000 -0.900969
v 0.000000 2.400000 -1.000000
v 0.781831 2.400000 -0.623490
v 0.974928 2.400000 -0.222521
v 0.974928 2.400000 0.222521
v 0.781831 2.400000 0.623490
v 0.433884 2.400000 0.900969
v 0.000000 2.400000 1.000000
v -0.433884 2.400000 0.900969
v -0.781831 2.400000 0.623490
v -0.974928 2.400000 0.222521
v -0.974928 2.400000 -0.222521
v -0.781831 2.400000 -0.623490
v -0.433884 2.400000 -0.900969
v 0.000000 1.953806 -0.695336
v 0.301695 1.953806 -0.626476
v 0.543635 1.953806 -0.433535
v 0.677902 1.953806 -0.154727
v 0.677902 1.953806 0.154727
v 0.543635 1.953806 0.433535
v 0.301695 1.953806 0.626476
v 0.000000 1.953806 0.695336
v -0.301695 1.953806 0.626476
v -0.543635 1.953806 0.433535
v -0.677902 1.953806 0.154727
v -0.677902 1.953806 -0.154727
v -0.543635 1.953806 -0.433535
v -0.301695 1.953806 -0.626476
v 0.449957 0.200000 0.305193
v 0.783599 2.200000 0.305193
v 0.449957 0.200000 -0.305193
v 0.783599 2.200000 -0.305193
v 1.268322 0.200000 0.305193
v 1.811274 0.851543 0.305193
v 1.652248 0.390832 0.305193
v 1.811274 1.548458 0.305193
v 1.268322 2.200000 0.305193
v 1.652248 2.009168 0.305193
v 1.811274 0.851543 -0.305193
v 1.268322 0.200000 -0.305193
v 1.652248 0.390832 -0.305193
v 1.268322 2.200000 -0.305193
v 1.811274 1.548458 -0.305193
v 1.652248 2.009168 -0.305193
vn -0.0000 0.0549 -0.9985
vn -0.0000 0.1104 -0.9939
vn 0.4312 0.1104 -0.8955
vn 0.4332 0.0549 -0.8996
vn 0.7771 0.1104 -0.6197
vn 0.7807 0.0549 -0.6226
vn 0.9690 0.1104 -0.2212
vn 0.9735 0.0549 -0.2222
vn 0.9690 0.1104 0.2212
vn 0.9735 0.0549 0.2222
vn 0.7771 0.1104 0.6197
vn 0.7807 0.0549 0.6226
vn 0.4312 0.1104 0.8955
vn 0.4332 0.0549 0.8996
vn -0.0000 0.1104 0.9939
vn -0.0000 0.0549 0.9985
vn -0.4312 0.1104 0.8955
vn -0.4332 0.0549 0.8996
vn -0.7771 0.1104 0.6197
vn -0.7807 0.0549 0.6226
vn -0.9690 0.1104 0.2212
vn -0.9735 0.0549 0.2222
vn -0.9690 0.1104 -0.2212
vn -0.9735 0.0549 -0.2222
vn -0.7771 0.1104 -0.6197
vn -0.7807 0.0549 -0.6226
vn -0.4312 0.1104 -0.8955
vn -0.4332 0.0549 -0.8996
vn -0.0000 -1.0000 -0.0000
vn -0.4312 -0.1104 -0.8955
vn -0.4332 -0.0549 -0.8996
vn -0.0000 -0.0549 -0.9985
vn -0.0000 -0.1104 -0.9939
vn -0.7771 -0.1104 -0.6197
vn -0.7807 -0.0549 -0.6226
vn -0.9690 -0.1104 -0.2212
vn -0.9735 -0.0549 -0.2222
vn -0.9690 -0.1104 0.2212
vn -0.9735 -0.0549 0.2222
vn -0.7771 -0.1104 0.6197
vn -0.7807 -0.0549 0.6226
vn -0.4312 -0.1104 0.8955
vn -0.4332 -0.0549 0.8996
vn -0.0000 -0.1104 0.9939
vn -0.0000 -0.0549 0.9985
vn 0.4312 -0.1104 0.8955
vn 0.4332 -0.0549 0.8996
vn 0.7771 -0.1104 0.6197
vn 0.7807 -0.0549 0.6226
vn 0.9690 -0.1104 0.2212
vn 0.9735 -0.0549 0.2222
vn 0.9690 -0.1104 -0.2212
vn 0.9735 -0.0549 -0.2222
vn 0.7771 -0.1104 -0.6197
vn 0.7807 -0.0549 -0.6226
vn 0.4312 -0.1104 -0.8955
vn 0.4332 -0.0549 -0.8996
vn -0.0000 1.0000 -0.0000
vn -0.6235 -0.0000 0.7818
vn -0.9010 -0.0000 0.4339
vn -1.0000 -0.0000 -0.0000
vn -0.9010 -0.0000 -0.4339
vn -0.6235 -0.0000 -0.7818
vn -0.2225 -0.0000 -0.9749
vn 0.2225 -0.0000 -0.9749
vn 0.6235 -0.0000 -0.7818
vn 0.9010 -0.0000 -0.4339
vn 1.0000 -0.0000 -0.0000
vn 0.9010 -0.0000 0.4339
vn 0.6235 -0.0000 0.7818
vn 0.2225 -0.0000 0.9749
vn -0.2225 -0.0000 0.9749
vn 0.2286 0.9735 -0.0000
vn 0.9862 -0.1654 -0.0000
vn 0.9862 0.1654 -0.0000
vn 0.2286 -0.9735 -0.0000
vn 0.7512 -0.6601 -0.0000
vn 0.7512 0.6601 -0.0000
vt 0.482699 0.328820
vt 0.482699 0.491117
vt 0.388841 0.491117
vt 0.388841 0.328820
vt 0.294983 0.491117
vt 0.294982 0.328820
vt 0.201124 0.491117
vt 0.201124 0.328820
vt 0.107266 0.491117
vt 0.107266 0.328820
vt 0.013407 0.491117
vt 0.013407 0.328820
vt 0.671986 0.328570
vt 0.671986 0.491532
vt 0.576764 0.491532
vt 0.576764 0.328570
vt 0.481543 0.491532
vt 0.481543 0.328570
vt 0.386321 0.491532
vt 0.386321 0.328570
vt 0.291099 0.491532
vt 0.291099 0.328570
vt 0.195878 0.491532
vt 0.195878 0.328570
vt 0.100656 0.491532
vt 0.100656 0.328570
vt 0.005435 0.491532
vt 0.005435 0.328570
vt 0.670416 0.328820
vt 0.670416 0.491117
vt 0.576558 0.491117
vt 0.576558 0.328820
vt 0.460873 0.219135
vt 0.460873 0.278087
vt 0.435295 0.331200
vt 0.389204 0.367956
vt 0.331730 0.381074
vt 0.274256 0.367956
vt 0.228166 0.331200
vt 0.202588 0.278086
vt 0.202588 0.219135
vt 0.228166 0.166021
vt 0.274256 0.129265
vt 0.331730 0.116147
vt 0.389204 0.129265
vt 0.435295 0.166021
vt 0.576558 0.005649
vt 0.576558 0.167946
vt 0.482699 0.167946
vt 0.482699 0.005649
vt 0.670416 0.005649
vt 0.670416 0.167946
vt 0.100656 0.004073
vt 0.100656 0.167036
vt 0.005435 0.167036
vt 0.005435 0.004073
vt 0.195878 0.004073
vt 0.195878 0.167036
vt 0.291099 0.004073
vt 0.291099 0.167036
vt 0.386321 0.004073
vt 0.386321 0.167036
vt 0.481542 0.004073
vt 0.481542 0.167036
vt 0.576764 0.004073
vt 0.576764 0.167036
vt 0.671985 0.004073
vt 0.671986 0.167036
vt 0.107266 0.005649
vt 0.107266 0.167946
vt 0.013407 0.167946
vt 0.013407 0.005649
vt 0.201124 0.005649
vt 0.201124 0.167946
vt 0.294982 0.005649
vt 0.294982 0.167946
vt 0.388841 0.005649
vt 0.388841 0.167946
vt 0.197879 0.227000
vt 0.293069 0.227000
vt 0.293069 0.283931
vt 0.197879 0.283931
vt 0.388258 0.227000
vt 0.388258 0.283931
vt 0.483448 0.227000
vt 0.483448 0.283931
vt 0.578637 0.227000
vt 0.578637 0.283931
vt 0.673827 0.227000
vt 0.673827 0.283931
vt 0.673110 0.283447
vt 0.578672 0.283447
vt 0.578672 0.226516
vt 0.673110 0.226516
vt 0.484234 0.283447
vt 0.484234 0.226516
vt 0.389796 0.283447
vt 0.389796 0.226516
vt 0.295358 0.283447
vt 0.295358 0.226516
vt 0.200920 0.283447
vt 0.200920 0.226516
vt 0.106482 0.283447
vt 0.106482 0.226516
vt 0.012045 0.283447
vt 0.012045 0.226516
vt 0.007501 0.227000
vt 0.102690 0.227000
vt 0.102690 0.283931
vt 0.007501 0.283931
vt 0.928852 0.185443
vt 0.897826 0.210185
vt 0.859138 0.219015
vt 0.820450 0.210185
vt 0.789425 0.185443
vt 0.772207 0.149690
vt 0.772207 0.110007
vt 0.789425 0.074254
vt 0.820450 0.049512
vt 0.859138 0.040681
vt 0.897827 0.049512
vt 0.928852 0.074254
vt 0.946070 0.110007
vt 0.946070 0.149690
vt 0.289395 0.509776
vt 0.385497 0.509776
vt 0.385497 0.615269
vt 0.289395 0.615269
vt 0.481600 0.509776
vt 0.481600 0.615269
vt 0.577702 0.509776
vt 0.577702 0.615269
vt 0.673804 0.509776
vt 0.673804 0.615269
vt 0.001088 0.509155
vt 0.097191 0.509155
vt 0.097191 0.614648
vt 0.001088 0.614648
vt 0.193293 0.509155
vt 0.193293 0.614648
vt 0.289395 0.509155
vt 0.289395 0.614648
vt 0.385497 0.509155
vt 0.385497 0.614648
vt 0.481600 0.509155
vt 0.481600 0.614648
vt 0.577702 0.509155
vt 0.577702 0.614648
vt 0.673804 0.509155
vt 0.673804 0.614648
vt 0.001088 0.509776
vt 0.097191 0.509776
vt 0.097191 0.615269
vt 0.001088 0.615269
vt 0.193293 0.509776
vt 0.193293 0.615269
vt 0.743173 0.797649
vt 0.908420 0.797649
vt 0.908421 0.920900
vt 0.743173 0.920900
vt 0.458082 0.797649
vt 0.575351 0.797649
vt 0.575351 0.920900
vt 0.458082 0.920900
vt 0.290260 0.920900
vt 0.290260 0.797649
vt 0.374171 0.797649
vt 0.374171 0.920900
vt 0.659262 0.920900
vt 0.659262 0.797649
vt 0.125013 0.797649
vt 0.125013 0.920900
s 1
f 30/1/1 58/2/2 57/3/3 31/4/4
f 31/4/4 57/3/3 59/5/5 33/6/6
f 33/6/6 59/5/5 60/7/7 35/8/8
f 35/8/8 60/7/7 61/9/9 37/10/10
f 37/10/10 61/9/9 62/11/11 39/12/12
f 39/13/12 62/14/11 63/15/13 41/16/14
f 41/16/14 63/15/13 64/17/15 43/18/16
f 43/18/16 64/17/15 65/19/17 45/20/18
f 45/20/18 65/19/17 66/21/19 47/22/20
f 47/22/20 66/21/19 67/23/21 49/24/22
f 49/24/22 67/23/21 68/25/23 51/26/24
f 51/26/24 68/25/23 69/27/25 53/28/26
f 53/29/26 69/30/25 70/31/27 55/32/28
f 55/32/28 70/31/27 58/2/2 30/1/1
s 0
f 1/33/29 3/34/29 5/35/29 7/36/29 9/37/29 11/38/29 13/39/29 15/40/29 17/41/29 19/42/29 21/43/29 23/44/29 25/45/29 27/46/29
s 1
f 27/47/30 56/48/31 29/49/32 1/50/33
f 56/48/31 55/32/28 30/1/1 29/49/32
f 25/51/34 54/52/35 56/48/31 27/47/30
f 54/52/35 53/29/26 55/32/28 56/48/31
f 23/53/36 52/54/37 54/55/35 25/56/34
f 52/54/37 51/26/24 53/28/26 54/55/35
f 21/57/38 50/58/39 52/54/37 23/53/36
f 50/58/39 49/24/22 51/26/24 52/54/37
f 19/59/40 48/60/41 50/58/39 21/57/38
f 48/60/41 47/22/20 49/24/22 50/58/39
f 17/61/42 46/62/43 48/60/41 19/59/40
f 46/62/43 45/20/18 47/22/20 48/60/41
f 15/63/44 44/64/45 46/62/43 17/61/42
f 44/64/45 43/18/16 45/20/18 46/62/43
f 13/65/46 42/66/47 44/64/45 15/63/44
f 42/66/47 41/16/14 43/18/16 44/64/45
f 11/67/48 40/68/49 42/66/47 13/65/46
f 40/68/49 39/13/12 41/16/14 42/66/47
f 9/69/50 38/70/51 40/71/49 11/72/48
f 38/70/51 37/10/10 39/12/12 40/71/49
f 7/73/52 36/74/53 38/70/51 9/69/50
f 36/74/53 35/8/8 37/10/10 38/70/51
f 5/75/54 34/76/55 36/74/53 7/73/52
f 34/76/55 33/6/6 35/8/8 36/74/53
f 3/77/56 32/78/57 34/76/55 5/75/54
f 32/78/57 31/4/4 33/6/6 34/76/55
f 1/50/33 29/49/32 32/78/57 3/77/56
f 29/49/32 30/1/1 31/4/4 32/78/57
s 0
f 2/79/58 4/80/58 57/81/58 58/82/58
f 4/80/58 6/83/58 59/84/58 57/81/58
f 6/83/58 8/85/58 60/86/58 59/84/58
f 8/85/58 10/87/58 61/88/58 60/86/58
f 10/87/58 12/89/58 62/90/58 61/88/58
f 12/91/58 14/92/58 63/93/58 62/94/58
f 14/92/58 16/95/58 64/96/58 63/93/58
f 16/95/58 18/97/58 65/98/58 64/96/58
f 18/97/58 20/99/58 66/100/58 65/98/58
f 20/99/58 22/101/58 67/102/58 66/100/58
f 22/101/58 24/103/58 68/104/58 67/102/58
f 24/103/58 26/105/58 69/106/58 68/104/58
f 26/107/58 28/108/58 70/109/58 69/110/58
f 28/108/58 2/79/58 58/82/58 70/109/58
f 72/111/58 71/112/58 84/113/58 83/114/58 82/115/58 81/116/58 80/117/58 79/118/58 78/119/58 77/120/58 76/121/58 75/122/58 74/123/58 73/124/58
f 72/125/59 73/126/59 6/127/59 4/128/59
f 73/126/60 74/129/60 8/130/60 6/127/60
f 74/129/61 75/131/61 10/132/61 8/130/61
f 75/131/62 76/133/62 12/134/62 10/132/62
f 76/135/63 77/136/63 14/137/63 12/138/63
f 77/136/64 78/139/64 16/140/64 14/137/64
f 78/139/65 79/141/65 18/142/65 16/140/65
f 79/141/66 80/143/66 20/144/66 18/142/66
f 80/143/67 81/145/67 22/146/67 20/144/67
f 81/145/68 82/147/68 24/148/68 22/146/68
f 82/147/69 83/149/69 26/150/69 24/148/69
f 83/151/70 84/152/70 28/153/70 26/154/70
f 84/152/71 71/155/71 2/156/71 28/153/71
f 71/155/72 72/125/72 4/128/72 2/156/72
s 1
f 98/157/73 88/158/58 86/159/58 93/160/73
f 95/161/74 99/162/75 92/163/75 90/164/74
f 89/165/76 96/166/76 97/167/77 91/168/77
f 91/168/77 97/167/77 95/161/74 90/164/74
f 98/157/73 93/160/73 94/169/78 100/170/78
f 100/170/78 94/169/78 92/163/75 99/162/75
f 87/171/29 96/166/76 89/165/76 85/172/29
