# Blender 4.1.0
# www.blender.org
o OuterWall.001
v -1.389879 0.006489 0.158045
v -1.389879 0.442680 0.158045
v -1.389879 0.595508 0.158045
v -1.574070 0.442680 0.230826
v -1.177689 0.595508 0.074201
v -1.573400 0.006489 0.230561
v -1.389879 0.848392 0.158045
v -1.179253 0.006489 0.074819
v -1.575086 0.595508 0.231227
v -1.178095 0.442680 0.074361
v -1.177532 0.655033 0.074139
v -1.190906 0.718559 0.079424
v -1.220675 0.771074 0.091186
v -1.278638 0.820736 0.114090
v -1.340605 0.843703 0.138575
v -1.440180 0.838596 0.177921
v -1.503762 0.800599 0.203045
v -1.536891 0.761915 0.216135
v -1.560094 0.713410 0.225304
v -1.573101 0.655617 0.230443
vn 0.3675 -0.0000 0.9300
vt 0.150566 0.471388
vt 0.000217 0.471388
vt 0.000217 0.395153
vt 0.150566 0.394734
vt 0.203243 0.471388
vt 0.203243 0.394587
vt 0.203243 0.538423
vt 0.150566 0.538055
vt 0.223760 0.394530
vt 0.245657 0.399371
vt 0.263758 0.410145
vt 0.280876 0.431125
vt 0.288792 0.453553
vt 0.290409 0.471388
vt 0.287032 0.489594
vt 0.273935 0.512607
vt 0.260601 0.524598
vt 0.243882 0.532996
vt 0.223962 0.537704
vt 0.000217 0.537813
s 1
f 2/1/1 1/2/1 8/3/1 10/4/1
f 3/5/1 2/1/1 10/4/1 5/6/1
f 9/7/1 4/8/1 2/1/1 3/5/1
f 5/6/1 11/9/1 12/10/1 13/11/1 14/12/1 15/13/1 7/14/1 3/5/1
f 7/14/1 16/15/1 17/16/1 18/17/1 19/18/1 20/19/1 9/7/1 3/5/1
f 4/8/1 6/20/1 1/2/1 2/1/1
