# Blender 4.1.0
# www.blender.org
g ClosedBarrel.015_Cylinder.019
v 1.264561 1.276716 -1.541957
v 2.407754 0.422459 -1.819036
v 2.700112 2.829859 -0.407522
v -0.164474 -0.437510 -2.464099
v -0.154970 -0.672481 -2.154430
v 0.885429 -1.222056 -2.718567
v 0.758851 -1.355338 -2.375916
v 1.212461 -0.864571 -2.017453
v 0.298640 -0.181714 -1.795967
v 3.843305 1.975602 -0.684602
v 4.142178 4.221918 0.939205
v 4.151894 3.981701 1.255790
v 5.192080 3.437373 0.684737
v 5.062676 3.301114 1.035040
v 4.633749 2.837052 0.696083
v 3.722966 3.517639 0.916833
v -0.274700 -3.220384 -2.492260
v 0.019137 3.451669 -5.182512
v -1.385717 -3.051761 -2.196245
v -1.088186 3.619731 -4.887482
v -0.125286 0.982024 -4.897879
v -1.515173 1.192972 -4.527564
v -0.008806 3.303994 -5.550528
v -1.285271 3.497727 -5.210432
v -0.010067 2.787478 -4.913772
v -1.117390 2.955540 -4.618741
v -0.302033 -3.364833 -2.852238
v -1.578497 -3.171100 -2.512141
v -0.243814 -2.517971 -2.776465
v -1.354832 -2.349348 -2.480450
v -1.612915 -1.029970 -3.628134
v -0.223029 -1.240918 -3.998449
v 0.454797 -0.373942 -1.806720
v 1.099859 -0.073539 -0.887986
v 0.536096 -0.094515 -2.064610
v -0.120499 0.041014 -1.538473
v 0.524564 0.341417 -0.619739
v -1.228822 1.410264 -1.392477
v 1.277218 0.250622 -1.009063
v -0.421847 1.786070 -0.243138
v -2.242499 3.099288 0.605791
v -3.049474 2.723483 -0.543548
v -4.184740 4.190279 1.537725
v -4.366059 3.858879 1.661506
v -4.925861 3.845141 0.482177
v -5.008976 3.559474 0.745827
v -4.464986 3.167099 0.492176
v -3.822067 3.466503 1.407855
v 2.140154 -3.514942 0.415280
v 1.606451 -3.522563 1.447522
v 2.472427 -3.703255 0.488278
v 2.473823 -2.857436 0.592652
v 1.940120 -2.865057 1.624894
v 3.756186 -1.751528 1.099656
v 1.859249 -3.712011 1.674235
v 3.088522 -1.761063 2.390993
v 4.144492 0.319762 2.952328
v 4.812156 0.329297 1.660991
v 5.027157 2.530463 3.358240
v 4.768714 2.724142 3.126463
v 5.640335 2.539220 2.172282
v 5.300642 2.731739 2.097654
v 4.985130 2.110011 1.929933
v 4.453202 2.102414 2.958743
v 2.037420 -2.413285 1.428678
v 1.203037 -2.842379 2.114318
v 2.354395 -2.437545 1.652586
v 1.900661 -1.717546 1.697665
v 1.066278 -2.146640 2.383305
v 2.138892 -0.252355 2.657355
v 1.395760 -2.930538 2.440327
v 1.095077 -0.789153 3.515093
v 0.662272 1.412669 4.366363
v 1.706088 1.949467 3.508625
v 0.097347 3.674928 4.994137
v -0.099680 3.765056 4.660848
v 1.055982 4.167922 4.206395
v 0.731928 4.192724 3.977488
v 0.861246 3.534843 3.723138
v 0.029638 3.107176 4.406497
v 1.112690 -3.668188 1.757760
v 0.179780 -3.260180 2.317784
v 1.291960 -3.879322 2.030673
v 1.507922 -3.057071 1.970922
v 0.575012 -2.649063 2.530946
v 2.665658 -2.090048 2.892365
v 0.220125 -3.410555 2.674093
v 1.498584 -1.579628 3.592957
v 2.749384 0.354387 4.267554
v 3.916458 -0.156032 3.566962
v 3.972525 2.391493 4.697885
v 3.931279 2.545227 4.333620
v 5.044360 1.922727 4.054464
v 4.861087 2.138576 3.775457
v 4.487361 1.560713 3.573895
v 3.557554 1.967364 4.132058
v -2.014641 -0.136545 -5.368567
v -0.938177 -0.091972 -5.804066
v -2.157542 0.213451 -5.457652
v -1.771507 0.135558 -4.721162
v -0.695043 0.180130 -5.156661
v -1.449624 1.327421 -3.435529
v -0.920779 0.264661 -5.958004
v -0.102965 1.383182 -3.980340
v 0.704042 2.257611 -1.896087
v -0.642616 2.201851 -1.351277
v 1.500245 2.887950 0.294756
v 1.482421 2.523340 0.452097
v 0.263481 2.836739 0.795107
v 0.409537 2.478916 0.886148
v 0.157343 2.213726 0.252963
v 1.230228 2.258151 -0.181087
v -2.650383 -2.715915 -0.302395
v -2.289121 -2.711836 -1.406883
v -3.031491 -2.785242 -0.336270
v -2.782435 -1.970236 -0.342834
v -2.421172 -1.966157 -1.447322
v -1.624575 -1.870679 -2.287997
v -1.492523 -2.616358 -2.247559
v -1.701208 -2.670859 -2.571096
v -2.262178 -0.348354 -2.920874
v -2.616431 -2.780555 -1.605232
v -3.258723 -0.467798 -1.869186
v -3.676629 1.892070 -1.997163
v -3.710664 -0.472900 -0.487470
v -4.128569 1.886968 -0.615446
v -4.285208 4.294364 -0.720201
v -3.870148 4.299049 -1.989162
v -3.895590 4.365239 -0.685570
v -3.535529 4.369303 -1.786384
v -3.770725 3.660136 -0.647332
v -3.410664 3.664200 -1.748147
v -2.616715 3.759360 -2.586026
v -2.741581 4.464464 -2.624264
v -2.954926 4.408745 -2.955026
v -2.680084 2.011514 -3.048851
vn 0.1222 0.4504 -0.8844
vn 0.1862 0.5196 -0.8339
vn 0.0891 0.4132 -0.9063
vn -0.5981 -0.6471 -0.4727
vn -0.1544 -0.4857 0.8604
vn 0.2179 0.5526 -0.8045
vn 0.5981 0.6471 0.4727
vn -0.2877 -0.2979 -0.9102
vn -0.2842 -0.2462 -0.9266
vn -0.2930 -0.4456 -0.8459
vn -0.2921 -0.3970 -0.8701
vn 0.0407 0.9262 -0.3748
vn 0.2903 0.3479 0.8914
vn -0.0407 -0.9262 0.3748
vn -0.3412 -0.7961 0.4998
vn 0.7586 -0.5472 -0.3537
vn 0.4208 0.7326 -0.5350
vn 0.3812 0.7657 -0.5180
vn 0.3001 0.8242 -0.4802
vn 0.2575 0.8504 -0.4589
vn -0.7586 0.5472 0.3537
vn -0.7717 0.4982 -0.3953
vn -0.4400 -0.8670 -0.2339
vn 0.7198 -0.5887 0.3678
vn 0.7470 -0.5439 0.3822
vn 0.7941 -0.4512 0.4072
vn 0.8146 -0.4020 0.4182
vn 0.4400 0.8670 0.2339
vn -0.6723 0.1483 -0.7253
vn 0.1803 -0.9174 -0.3547
vn 0.6878 -0.2462 0.6829
vn 0.6809 -0.1971 0.7053
vn 0.6617 -0.0990 0.7432
vn 0.6489 -0.0486 0.7593
vn -0.1803 0.9174 0.3547
vn -0.2897 0.4768 -0.8299
vn -0.5212 -0.8058 -0.2811
vn 0.2319 -0.5608 0.7948
vn 0.2614 -0.5192 0.8137
vn 0.3171 -0.4330 0.8438
vn 0.3441 -0.3873 0.8553
vn 0.5212 0.8058 0.2811
vn 0.1706 -0.9296 0.3266
vn -0.3372 -0.3592 -0.8702
vn -0.2051 0.8858 -0.4162
vn -0.1876 0.9097 -0.3706
vn -0.1516 0.9486 -0.2777
vn -0.1327 0.9643 -0.2292
vn 0.3372 0.3591 0.8703
vn 0.1691 -0.9313 0.3227
vn 0.9344 0.1821 0.3063
vn 0.1741 -0.9833 0.0533
vn 0.7069 0.1625 0.6883
vn -0.8174 -0.2842 -0.5011
vn -0.8309 -0.2304 -0.5064
vn -0.6966 -0.2149 -0.6845
vn -0.6841 -0.2674 -0.6786
vn -0.9102 -0.2869 -0.2988
vn -0.9237 -0.2344 -0.3030
vn -0.9423 -0.1292 -0.3087
vn -0.8500 -0.1225 -0.5123
vn -0.7152 -0.1097 -0.6902
vn -0.9477 -0.0752 -0.3103
vn -0.8558 -0.0671 -0.5129
vn -0.1741 0.9833 -0.0533
vn -0.7216 -0.0557 -0.6901
vt 0.174544 0.170020
vt 0.174544 0.330354
vt 0.078153 0.330354
vt 0.078153 0.170020
vt 0.174544 0.009686
vt 0.078153 0.009686
vt 0.386380 0.015746
vt 0.482917 0.015746
vt 0.482917 0.043861
vt 0.386380 0.043861
vt 0.484816 0.599850
vt 0.388744 0.599850
vt 0.388744 0.507056
vt 0.484816 0.507056
vt 0.174544 0.490689
vt 0.078153 0.490689
vt 0.485950 0.049073
vt 0.388714 0.049073
vt 0.388714 0.015699
vt 0.485950 0.015699
vt 0.193293 0.508936
vt 0.289395 0.508936
vt 0.289395 0.616717
vt 0.193293 0.616717
vt 0.578533 0.330354
vt 0.578533 0.490689
vt 0.482142 0.490689
vt 0.482142 0.330354
vt 0.578533 0.009686
vt 0.578533 0.170020
vt 0.482142 0.170020
vt 0.482142 0.009686
vt 0.583185 0.049073
vt 0.583185 0.015699
vt 0.097191 0.508936
vt 0.097191 0.616717
vt 0.579454 0.015746
vt 0.579454 0.043861
vt 0.580888 0.599850
vt 0.580888 0.507056
vt 0.292672 0.599850
vt 0.196601 0.599850
vt 0.196601 0.507056
vt 0.292672 0.507056
vt 0.193306 0.015746
vt 0.289843 0.015746
vt 0.289843 0.043861
vt 0.193306 0.043861
vt 0.392713 0.009686
vt 0.392713 0.170020
vt 0.296322 0.170020
vt 0.296322 0.009686
vt 0.392713 0.330354
vt 0.296322 0.330354
vt 0.392713 0.490689
vt 0.296322 0.490689
vt 0.291478 0.049073
vt 0.194243 0.049073
vt 0.194243 0.015699
vt 0.291478 0.015699
vt 0.385497 0.508936
vt 0.481600 0.508936
vt 0.481600 0.616717
vt 0.385497 0.616717
vt 0.100529 0.599850
vt 0.004457 0.599850
vt 0.004457 0.507056
vt 0.100529 0.507056
vt 0.000232 0.015746
vt 0.096769 0.015746
vt 0.096769 0.043861
vt 0.000232 0.043861
vt 0.096579 0.009686
vt 0.096579 0.170020
vt 0.000188 0.170020
vt 0.000188 0.009686
vt 0.096579 0.330354
vt 0.000188 0.330355
vt 0.096579 0.490689
vt 0.000188 0.490689
vt 0.097007 0.049073
vt -0.000229 0.049073
vt -0.000229 0.015699
vt 0.097007 0.015699
vt 0.577702 0.508936
vt 0.673804 0.508936
vt 0.673804 0.616717
vt 0.577702 0.616717
vt 0.004457 0.600192
vt 0.100529 0.599865
vt 0.100529 0.507072
vt 0.004457 0.507072
vt 0.096788 0.041400
vt 0.000251 0.041400
vt 0.000251 0.013285
vt 0.096788 0.013285
vt 0.674924 0.009686
vt 0.674924 0.170020
vt 0.578533 0.170020
vt 0.578533 0.009686
vt 0.674924 0.330354
vt 0.578533 0.330354
vt 0.674924 0.490689
vt 0.578533 0.490689
vt 0.681991 0.049319
vt 0.584756 0.049319
vt 0.584756 0.015946
vt 0.681991 0.015946
vt 0.001088 0.508094
vt 0.097191 0.508094
vt 0.097191 0.617828
vt 0.001088 0.617828
vt 0.196601 0.599865
vt 0.196601 0.507072
vt 0.193325 0.041400
vt 0.193325 0.013285
vt 0.482142 0.170020
vt 0.482142 0.009686
vt 0.482142 0.330354
vt 0.487520 0.049319
vt 0.487520 0.015946
vt 0.193293 0.508094
vt 0.193293 0.617828
vt 0.388744 0.599865
vt 0.484816 0.599865
vt 0.484816 0.507072
vt 0.388744 0.507072
vt 0.482937 0.041400
vt 0.386399 0.041400
vt 0.386399 0.013285
vt 0.482937 0.013285
vt 0.289360 0.009686
vt 0.289360 0.170020
vt 0.192969 0.170020
vt 0.192969 0.009686
vt 0.289360 0.330354
vt 0.192969 0.330354
vt 0.289360 0.490689
vt 0.192970 0.490689
vt 0.293049 0.049319
vt 0.195813 0.049319
vt 0.195813 0.015946
vt 0.293049 0.015946
vt 0.385497 0.508094
vt 0.481600 0.508094
vt 0.481600 0.617828
vt 0.385497 0.617828
vt 0.580888 0.599865
vt 0.676960 0.599865
vt 0.676960 0.507072
vt 0.580888 0.507072
vt 0.676010 0.041400
vt 0.579473 0.041400
vt 0.579473 0.013285
vt 0.676010 0.013285
vt 0.676960 0.599850
vt 0.676960 0.507056
vt 0.675991 0.015746
vt 0.675991 0.043861
vt 0.674924 0.009686
vt 0.674924 0.170020
vt 0.096579 0.009686
vt 0.096579 0.170020
vt 0.000188 0.170020
vt 0.096579 0.330354
vt 0.000188 0.330355
vt 0.674924 0.330354
vt 0.000188 0.490689
vt 0.098577 0.049319
vt 0.001341 0.049319
vt 0.001341 0.015946
vt 0.098577 0.015946
vt 0.577702 0.508094
vt 0.673804 0.508094
vt 0.673804 0.617828
vt 0.577702 0.617828
vt 0.001088 0.508936
vt 0.001088 0.616717
vt 0.680421 0.049073
vt 0.680421 0.015699
s 1
f 1/1/1 3/2/2 10/3/2 2/4/1
f 4/5/3 1/1/1 2/4/1 6/6/3
s 0
f 7/7/4 5/8/4 4/9/4 6/10/4
f 5/11/5 7/12/5 8/13/5 9/14/5
s 1
f 3/2/2 11/15/6 13/16/6 10/3/2
s 0
f 12/17/7 14/18/7 13/19/7 11/20/7
f 16/21/5 15/22/5 14/23/5 12/24/5
s 1
f 22/25/8 24/26/9 23/27/9 21/28/8
f 28/29/10 31/30/11 32/31/11 27/32/10
f 31/30/11 22/25/8 21/28/8 32/31/11
s 0
f 20/33/12 18/17/12 23/20/12 24/34/12
f 26/35/13 25/21/13 18/24/13 20/36/13
f 17/8/14 19/37/14 28/38/14 27/9/14
f 19/39/13 17/11/13 29/14/13 30/40/13
f 33/41/15 34/42/15 37/43/15 36/44/15
f 34/45/16 33/46/16 35/47/16 39/48/16
s 1
f 35/49/17 38/50/18 40/51/18 39/52/17
f 38/50/18 42/53/19 41/54/19 40/51/18
f 42/53/19 45/55/20 43/56/20 41/54/19
s 0
f 46/57/21 44/58/21 43/59/21 45/60/21
f 47/61/15 48/62/15 44/63/15 46/64/15
f 49/65/22 50/66/22 53/67/22 52/68/22
f 50/69/23 49/70/23 51/71/23 55/72/23
s 1
f 51/73/24 54/74/25 56/75/25 55/76/24
f 54/74/25 58/77/26 57/78/26 56/75/25
f 58/77/26 61/79/27 59/80/27 57/78/26
s 0
f 62/81/28 60/82/28 59/83/28 61/84/28
f 63/85/22 64/86/22 60/87/22 62/88/22
f 65/89/29 66/90/29 69/91/29 68/92/29
f 66/93/30 65/94/30 67/95/30 71/96/30
s 1
f 67/97/31 70/98/32 72/99/32 71/100/31
f 70/98/32 74/101/33 73/102/33 72/99/32
f 74/101/33 77/103/34 75/104/34 73/102/33
s 0
f 78/105/35 76/106/35 75/107/35 77/108/35
f 79/109/29 80/110/29 76/111/29 78/112/29
f 81/90/36 82/113/36 85/114/36 84/91/36
f 82/115/37 81/93/37 83/96/37 87/116/37
s 1
f 83/100/38 86/99/39 88/117/39 87/118/38
f 86/99/39 90/102/40 89/119/40 88/117/39
f 90/102/40 93/104/41 91/27/41 89/119/40
s 0
f 94/106/42 92/120/42 91/121/42 93/107/42
f 95/110/36 96/122/36 92/123/36 94/111/36
f 97/124/43 98/125/43 101/126/43 100/127/43
f 98/128/44 97/129/44 99/130/44 103/131/44
s 1
f 99/132/45 102/133/46 104/134/46 103/135/45
f 102/133/46 106/136/47 105/137/47 104/134/46
f 106/136/47 109/138/48 107/139/48 105/137/47
s 0
f 110/140/49 108/141/49 107/142/49 109/143/49
f 111/144/50 112/145/50 108/146/50 110/147/50
f 113/148/51 114/149/51 117/150/51 116/151/51
f 114/152/52 113/153/52 115/154/52 122/155/52
f 114/156/53 119/39/53 118/40/53 117/157/53
f 119/37/52 114/158/52 122/159/52 120/38/52
s 1
f 122/160/54 123/161/55 121/30/56 120/29/57
f 115/162/58 125/163/59 123/164/55 122/76/54
f 125/163/59 126/165/60 124/166/61 123/164/55
f 123/161/55 124/167/61 136/25/62 121/30/56
f 126/165/60 127/79/63 128/168/64 124/166/61
s 0
f 129/169/65 130/170/65 128/171/65 127/172/65
f 131/173/51 132/174/51 130/175/51 129/176/51
f 132/177/53 133/35/53 134/36/53 130/178/53
f 130/179/65 134/33/65 135/34/65 128/180/65
s 1
f 124/167/61 128/103/64 135/26/66 136/25/62
