# Blender 4.1.0
# www.blender.org
o HammerHead
v 0.026371 0.160390 0.013812
v 0.026371 0.123165 0.013812
v -0.026371 0.160390 0.013812
v -0.026371 0.123165 0.013812
v -0.026371 0.160390 0.086304
v -0.026371 0.123165 0.086304
v 0.026371 0.160390 0.086304
v 0.026371 0.123165 0.086304
v -0.022481 0.159094 0.067884
v -0.022481 0.124462 0.067884
v 0.022481 0.159094 0.067884
v 0.022481 0.124462 0.067884
v 0.022481 0.159094 0.054817
v 0.022481 0.124462 0.054817
v -0.026371 0.160390 -0.041142
v -0.026371 0.123165 -0.041142
v 0.016221 0.162385 -0.046247
v -0.016221 0.162385 -0.046247
v -0.016221 0.120556 -0.046247
v 0.016221 0.120556 -0.046247
v -0.022481 0.159094 0.054817
v -0.022481 0.124462 0.054817
v 0.026371 0.160390 -0.041142
v 0.026371 0.123165 -0.041142
v -0.026371 0.160390 0.095376
v -0.026371 0.123165 0.095376
v 0.026371 0.160390 0.095376
v 0.026371 0.123165 0.095376
v -0.020454 0.167806 0.013812
v 0.020454 0.167806 0.013812
v 0.020454 0.115064 0.013812
v -0.020454 0.115064 0.013812
v -0.020454 0.167806 0.086304
v 0.020454 0.167806 0.086304
v 0.020454 0.115064 0.086304
v -0.020454 0.115064 0.086304
v -0.017437 0.163916 0.067884
v 0.017437 0.163916 0.067884
v 0.020914 0.126981 -0.046247
v 0.020914 0.156503 -0.046247
v -0.017437 0.163916 0.054817
v 0.017437 0.163916 0.054817
v 0.017437 0.118954 0.067884
v -0.017437 0.118954 0.067884
v 0.017437 0.118954 0.054817
v -0.017437 0.118954 0.054817
v -0.020914 0.126981 -0.046247
v -0.020914 0.156503 -0.046247
v 0.020454 0.115064 -0.041142
v -0.020454 0.115064 -0.041142
v -0.020454 0.167806 -0.041142
v 0.020454 0.167806 -0.041142
v -0.020454 0.167806 0.095376
v 0.020454 0.167806 0.095376
v 0.020454 0.115064 0.095376
v -0.020454 0.115064 0.095376
v 0.020454 0.123165 0.095376
v -0.020454 0.123165 0.095376
v 0.020454 0.160390 0.095376
v -0.020454 0.160390 0.095376
vn -0.3857 0.9210 0.0547
vn -0.9254 0.3750 0.0544
vn -0.9198 0.3734 -0.1209
vn -0.3787 0.9175 -0.1216
vn -0.9335 0.3403 -0.1134
vn -0.7254 0.2539 0.6398
vn -0.3399 0.7060 0.6213
vn -0.4246 0.8979 -0.1161
vn -0.9379 0.3428 0.0524
vn -0.4233 0.9044 0.0540
vn -0.4068 0.8198 -0.4031
vn -0.8590 0.3135 -0.4047
vn 0.4233 0.9044 0.0540
vn 0.9379 0.3428 0.0524
vn 0.8590 0.3135 -0.4047
vn 0.4068 0.8198 -0.4031
vn 0.9363 -0.3471 0.0538
vn 0.9309 -0.3453 -0.1194
vn 0.4062 -0.9054 -0.1237
vn 0.4131 -0.9090 0.0556
vn -0.9411 -0.3187 -0.1129
vn -0.4453 -0.8876 -0.1173
vn -0.3560 -0.7010 0.6180
vn -0.7277 -0.2375 0.6435
vn -0.4230 -0.8113 -0.4036
vn -0.8655 -0.2951 -0.4047
vn -0.3802 -0.0995 -0.9195
vn -0.1571 -0.3672 -0.9168
vn 0.3857 0.9210 0.0547
vn 0.9254 0.3750 0.0544
vn 0.3793 0.1069 -0.9191
vn 0.1480 0.3721 -0.9163
vn 0.9411 -0.3187 -0.1129
vn 0.4453 -0.8876 -0.1173
vn 0.7277 -0.2375 0.6435
vn 0.3560 -0.7010 0.6180
vn 0.3787 0.9175 -0.1216
vn 0.4246 0.8979 -0.1161
vn 0.9334 0.3403 -0.1134
vn 0.9198 0.3734 -0.1209
vn 0.9457 -0.3208 0.0521
vn 0.4445 -0.8941 0.0547
vn 0.4230 -0.8113 -0.4036
vn 0.8655 -0.2951 -0.4047
vn -0.0000 -0.0000 1.0000
vn 0.7254 0.2539 0.6398
vn 0.3399 0.7060 0.6213
vn -0.9309 -0.3453 -0.1194
vn -0.4062 -0.9054 -0.1237
vn -0.9457 -0.3208 0.0521
vn -0.4131 -0.9090 0.0556
vn -0.9363 -0.3471 0.0538
vn -0.4445 -0.8941 0.0547
vn 0.1571 -0.3672 -0.9168
vn 0.3802 -0.0995 -0.9195
vn -0.1480 0.3721 -0.9163
vn -0.3793 0.1069 -0.9191
vt 0.786646 0.767925
vt 0.606800 0.832045
vt 0.602016 0.832154
vt 0.791430 0.767817
vt 0.597231 0.832262
vt 0.796214 0.767709
vt 0.611584 0.831937
vt 0.781862 0.768033
vt 0.782511 0.788036
vt 0.783809 0.828042
vt 0.789243 0.847937
vt 0.794027 0.847829
vt 0.795325 0.887835
vt 0.790541 0.887943
vt 0.597881 0.852265
vt 0.800758 0.907729
vt 0.786406 0.908054
vt 0.612233 0.851940
vt 0.787295 0.787928
vt 0.788593 0.827934
vt 0.798811 0.847721
vt 0.800109 0.887726
vt 0.792079 0.787820
vt 0.796863 0.787712
vt 0.798161 0.827718
vt 0.793377 0.827826
vt 0.784458 0.848045
vt 0.785757 0.888051
vt 0.797945 0.821050
vt 0.602665 0.852157
vt 0.795974 0.907837
vt 0.799027 0.854388
vt 0.791190 0.907946
vt 0.607449 0.852048
vt 0.799460 0.867724
vt 0.799243 0.861056
vt 0.797729 0.814382
vt 0.797512 0.807715
s 1
f 41/1/1 21/2/2 9/3/3 37/4/4
f 5/5/5 25/5/6 53/6/7 33/6/8
f 3/7/9 29/8/10 51/8/11 15/7/12
f 5/5/5 33/6/8 37/4/4 9/3/3
f 30/9/13 1/10/14 23/10/15 52/9/16
f 14/11/17 12/12/18 43/13/19 45/14/20
f 6/15/21 36/16/22 56/16/23 26/15/24
f 50/17/25 16/18/26 47/18/27 19/17/28
f 30/9/13 42/19/29 13/20/30 1/10/14
f 52/9/16 23/10/15 40/10/31 17/9/32
f 12/12/18 8/21/33 35/22/34 43/13/19
f 8/21/33 28/21/35 55/22/36 35/22/34
f 38/23/37 34/24/38 7/25/39 11/26/40
f 2/27/41 31/28/42 49/28/43 24/27/44
f 59/29/45 27/25/46 54/24/47
f 29/8/10 3/7/9 21/2/2 41/1/1
f 2/27/41 14/11/17 45/14/20 31/28/42
f 10/30/48 44/31/49 36/16/22 6/15/21
f 34/24/38 54/24/47 27/25/46 7/25/39
f 8/21/33 7/25/39 27/25/46 28/21/35
f 55/22/36 28/21/35 57/32/45
f 57/32/45 28/21/35 27/25/46 59/29/45
f 2/27/41 1/10/14 13/20/30 14/11/17
f 1/10/14 2/27/41 24/27/44 23/10/15
f 4/18/50 3/7/9 15/7/12 16/18/26
f 14/11/17 13/20/30 11/26/40 12/12/18
f 46/33/51 44/31/49 10/30/48 22/34/52
f 6/15/21 5/5/5 9/3/3 10/30/48
f 4/18/50 32/17/53 46/33/51 22/34/52
f 10/30/48 9/3/3 21/2/2 22/34/52
f 12/12/18 11/26/40 7/25/39 8/21/33
f 5/5/5 6/15/21 26/15/24 25/5/6
f 4/18/50 16/18/26 50/17/25 32/17/53
f 22/34/52 21/2/2 3/7/9 4/18/50
f 24/27/44 49/28/43 20/28/54 39/27/55
f 49/28/43 50/17/25 19/17/28 20/28/54
f 26/35/24 58/36/45 60/37/45 25/38/6
f 58/36/45 57/32/45 59/29/45 60/37/45
f 26/35/24 56/16/23 58/36/45
f 56/16/23 55/22/36 57/32/45 58/36/45
f 29/8/10 30/9/13 52/9/16 51/8/11
f 34/24/38 33/6/8 53/6/7 54/24/47
f 36/16/22 35/22/34 55/22/36 56/16/23
f 25/38/6 60/37/45 53/6/7
f 60/37/45 59/29/45 54/24/47 53/6/7
f 44/31/49 43/13/19 35/22/34 36/16/22
f 30/9/13 29/8/10 41/1/1 42/19/29
f 42/19/29 41/1/1 37/4/4 38/23/37
f 46/33/51 45/14/20 43/13/19 44/31/49
f 31/28/42 32/17/53 50/17/25 49/28/43
f 15/7/12 51/8/11 18/8/56 48/7/57
f 51/8/11 52/9/16 17/9/32 18/8/56
f 23/10/15 24/27/44 39/27/55 40/10/31
f 32/17/53 31/28/42 45/14/20 46/33/51
f 16/18/26 15/7/12 48/7/57 47/18/27
f 38/23/37 37/4/4 33/6/8 34/24/38
f 42/19/29 38/23/37 11/26/40 13/20/30
f 40/10/31 39/27/55 47/18/27 48/7/57
f 40/10/31 48/7/57 18/8/56 17/9/32
f 39/27/55 20/28/54 19/17/28 47/18/27
o HammerStick
v 0.000000 -0.210433 -0.008450
v 0.000000 0.170315 -0.008450
v 0.005645 -0.210433 -0.006966
v 0.005645 0.170315 -0.006966
v 0.010431 -0.210433 -0.002672
v 0.010431 0.170315 -0.002672
v 0.013629 -0.210433 0.003951
v 0.013629 0.170315 0.003951
v 0.014752 -0.210433 0.012102
v 0.014752 0.170315 0.012102
v 0.013629 -0.210433 0.020683
v 0.013629 0.170315 0.020683
v 0.010431 -0.210433 0.028384
v 0.010431 0.170315 0.028384
v 0.005645 -0.210433 0.033841
v 0.005645 0.170315 0.033841
v 0.000000 -0.210433 0.035864
v 0.000000 0.170315 0.035864
v -0.005645 -0.210433 0.033841
v -0.005645 0.170315 0.033841
v -0.010431 -0.210433 0.028384
v -0.010431 0.170315 0.028384
v -0.013629 -0.210433 0.020683
v -0.013629 0.170315 0.020683
v -0.014752 -0.210433 0.012102
v -0.014752 0.170315 0.012102
v -0.013629 -0.210433 0.003951
v -0.013629 0.170315 0.003951
v -0.010431 -0.210433 -0.002672
v -0.010431 0.170315 -0.002672
v -0.005645 -0.210433 -0.006966
v -0.005645 0.170315 -0.006966
v 0.000000 -0.114629 -0.010300
v 0.000000 -0.018824 -0.010300
v 0.000000 0.076980 -0.008450
v 0.005645 0.076980 -0.006966
v 0.006533 -0.018824 -0.008589
v 0.006533 -0.114629 -0.008589
v 0.010431 0.076980 -0.002672
v 0.011918 -0.018824 -0.003772
v 0.011918 -0.114629 -0.003772
v 0.013629 0.076980 0.003951
v 0.015402 -0.018824 0.003427
v 0.015402 -0.114629 0.003427
v 0.014752 0.076980 0.012102
v 0.016601 -0.018824 0.012101
v 0.016601 -0.114629 0.012101
v 0.013629 0.076980 0.020683
v 0.015416 -0.018824 0.021158
v 0.015416 -0.114629 0.021158
v 0.010431 0.076980 0.028384
v 0.012012 -0.018824 0.029344
v 0.012012 -0.114629 0.029344
v 0.005645 0.076980 0.033841
v 0.006724 -0.018824 0.035344
v 0.006724 -0.114629 0.035344
v 0.000000 0.076980 0.035864
v 0.000000 -0.018824 0.037713
v 0.000000 -0.114629 0.037713
v -0.005645 0.076980 0.033841
v -0.006724 -0.018824 0.035344
v -0.006724 -0.114629 0.035344
v -0.010431 0.076980 0.028384
v -0.012012 -0.018824 0.029344
v -0.012012 -0.114629 0.029344
v -0.013629 0.076980 0.020683
v -0.015416 -0.018824 0.021158
v -0.015416 -0.114629 0.021158
v -0.014752 0.076980 0.012102
v -0.016601 -0.018824 0.012101
v -0.016601 -0.114629 0.012101
v -0.013629 0.076980 0.003951
v -0.015402 -0.018824 0.003427
v -0.015402 -0.114629 0.003427
v -0.010431 0.076980 -0.002672
v -0.011918 -0.018824 -0.003772
v -0.011918 -0.114629 -0.003772
v -0.005645 0.076980 -0.006966
v -0.006533 -0.018824 -0.008589
v -0.006533 -0.114629 -0.008589
vn -0.0000 0.0097 -1.0000
vn 0.4740 0.0097 -0.8805
vn 0.4734 0.0096 -0.8808
vn 0.7991 0.0097 -0.6012
vn 0.7987 0.0096 -0.6017
vn 0.9572 0.0097 -0.2893
vn 0.9571 0.0096 -0.2897
vn 0.9999 0.0097 -0.0035
vn 0.9999 0.0096 -0.0036
vn 0.9658 0.0097 0.2589
vn 0.9658 0.0096 0.2590
vn 0.8487 0.0096 0.5287
vn 0.8483 0.0096 0.5294
vn 0.5616 0.0096 0.8273
vn 0.5601 0.0096 0.8284
vn 0.3359 0.0092 0.9419
vn 0.3334 0.0092 0.9427
vn -0.3334 0.0092 0.9427
vn -0.3359 0.0092 0.9419
vn -0.5616 0.0096 0.8273
vn -0.5601 0.0096 0.8284
vn -0.8487 0.0096 0.5287
vn -0.8483 0.0096 0.5294
vn -0.9658 0.0097 0.2589
vn -0.9658 0.0096 0.2590
vn -0.9999 0.0097 -0.0035
vn -0.9999 0.0096 -0.0036
vn -0.9572 0.0097 -0.2893
vn -0.9571 0.0096 -0.2897
vn -0.7991 0.0097 -0.6012
vn -0.7987 0.0096 -0.6017
vn -0.4740 0.0097 -0.8805
vn -0.4734 0.0096 -0.8808
vn -0.0000 1.0000 -0.0000
vn -0.0000 -1.0000 -0.0000
vn -0.0000 -0.0000 -1.0000
vn 0.4743 -0.0000 -0.8804
vn -0.4734 -0.0096 -0.8808
vn -0.0000 -0.0097 -1.0000
vn -0.4736 -0.0193 -0.8805
vn -0.0000 -0.0193 -0.9998
vn -0.4743 -0.0000 -0.8804
vn -0.7987 -0.0096 -0.6017
vn -0.7987 -0.0193 -0.6014
vn -0.7993 -0.0000 -0.6009
vn -0.9571 -0.0096 -0.2897
vn -0.9570 -0.0193 -0.2895
vn -0.9573 -0.0000 -0.2892
vn -0.9999 -0.0096 -0.0036
vn -0.9998 -0.0193 -0.0035
vn -1.0000 -0.0000 -0.0034
vn -0.9658 -0.0096 0.2590
vn -0.9657 -0.0193 0.2590
vn -0.9659 -0.0000 0.2589
vn -0.8483 -0.0096 0.5294
vn -0.8484 -0.0193 0.5290
vn -0.8490 -0.0000 0.5284
vn -0.5601 -0.0096 0.8284
vn -0.5607 -0.0193 0.8278
vn -0.5625 -0.0000 0.8268
vn -0.3334 -0.0092 0.9427
vn -0.3345 -0.0184 0.9422
vn -0.3372 -0.0000 0.9414
vn 0.5601 -0.0096 0.8284
vn 0.3334 -0.0092 0.9427
vn 0.5607 -0.0193 0.8278
vn 0.3345 -0.0184 0.9422
vn 0.5625 -0.0000 0.8268
vn 0.3372 -0.0000 0.9414
vn 0.8483 -0.0096 0.5294
vn 0.8484 -0.0193 0.5290
vn 0.8490 -0.0000 0.5284
vn 0.9658 -0.0096 0.2590
vn 0.9657 -0.0193 0.2590
vn 0.9659 -0.0000 0.2589
vn 0.9999 -0.0096 -0.0036
vn 0.9998 -0.0193 -0.0035
vn 1.0000 -0.0000 -0.0034
vn 0.9571 -0.0096 -0.2897
vn 0.9570 -0.0193 -0.2895
vn 0.9573 -0.0000 -0.2892
vn 0.7987 -0.0096 -0.6017
vn 0.7987 -0.0193 -0.6014
vn 0.7993 -0.0000 -0.6009
vn 0.4734 -0.0096 -0.8808
vn 0.4736 -0.0193 -0.8805
vt 1.000000 0.750000
vt 1.000000 0.875000
vt 0.937500 0.875000
vt 0.937500 0.750000
vt 0.875000 0.875000
vt 0.875000 0.750000
vt 0.812500 0.875000
vt 0.812500 0.750000
vt 0.750000 0.875000
vt 0.750000 0.750000
vt 0.687500 0.875000
vt 0.687500 0.750000
vt 0.625000 0.875000
vt 0.625000 0.750000
vt 0.562500 0.875000
vt 0.562500 0.750000
vt 0.500000 0.875000
vt 0.500000 0.750000
vt 0.437500 0.875000
vt 0.437500 0.750000
vt 0.375000 0.875000
vt 0.375000 0.750000
vt 0.312500 0.875000
vt 0.312500 0.750000
vt 0.250000 0.875000
vt 0.250000 0.750000
vt 0.187500 0.875000
vt 0.187500 0.750000
vt 0.125000 0.875000
vt 0.125000 0.750000
vt 0.062500 0.875000
vt 0.062500 0.750000
vt 0.158156 0.471731
vt 0.080294 0.419706
vt 0.028269 0.341844
vt 0.010000 0.250000
vt 0.028269 0.158156
vt 0.080294 0.080294
vt 0.158156 0.028269
vt 0.000000 0.875000
vt 0.000000 0.750000
vt 0.750000 0.490000
vt 0.841844 0.471731
vt 0.919706 0.419706
vt 0.971731 0.341844
vt 0.990000 0.250000
vt 0.971731 0.158156
vt 0.919706 0.080294
vt 0.841844 0.028269
vt 0.750000 0.010000
vt 0.658156 0.028269
vt 0.580294 0.080294
vt 0.528269 0.158156
vt 0.510000 0.250000
vt 0.528269 0.341844
vt 0.580294 0.419706
vt 0.658156 0.471731
vt 1.000000 1.000000
vt 0.937500 1.000000
vt 0.062500 0.625000
vt 0.000000 0.625000
vt 0.062500 0.500000
vt 0.000000 0.500000
vt 0.062500 1.000000
vt 0.000000 1.000000
vt 0.125000 0.625000
vt 0.125000 0.500000
vt 0.125000 1.000000
vt 0.187500 0.625000
vt 0.187500 0.500000
vt 0.187500 1.000000
vt 0.250000 0.625000
vt 0.250000 0.500000
vt 0.250000 1.000000
vt 0.312500 0.625000
vt 0.312500 0.500000
vt 0.312500 1.000000
vt 0.375000 0.625000
vt 0.375000 0.500000
vt 0.375000 1.000000
vt 0.437500 0.625000
vt 0.437500 0.500000
vt 0.437500 1.000000
vt 0.500000 0.625000
vt 0.500000 0.500000
vt 0.500000 1.000000
vt 0.562500 0.625000
vt 0.562500 0.500000
vt 0.562500 1.000000
vt 0.625000 0.625000
vt 0.625000 0.500000
vt 0.625000 1.000000
vt 0.687500 0.625000
vt 0.687500 0.500000
vt 0.687500 1.000000
vt 0.750000 0.625000
vt 0.750000 0.500000
vt 0.750000 1.000000
vt 0.812500 0.625000
vt 0.812500 0.500000
vt 0.812500 1.000000
vt 0.875000 0.625000
vt 0.875000 0.500000
vt 0.875000 1.000000
vt 0.937500 0.625000
vt 0.937500 0.500000
vt 1.000000 0.625000
vt 1.000000 0.500000
vt 0.250000 0.490000
vt 0.250000 0.010000
vt 0.341844 0.471731
vt 0.341844 0.028269
vt 0.419706 0.419706
vt 0.419706 0.080294
vt 0.471731 0.158156
vt 0.490000 0.250000
vt 0.471731 0.341844
s 1
f 94/39/58 95/40/58 96/41/59 97/42/60
f 97/42/60 96/41/59 99/43/61 100/44/62
f 100/44/62 99/43/61 102/45/63 103/46/64
f 103/46/64 102/45/63 105/47/65 106/48/66
f 106/48/66 105/47/65 108/49/67 109/50/68
f 109/50/68 108/49/67 111/51/69 112/52/70
f 112/52/70 111/51/69 114/53/71 115/54/72
f 115/54/72 114/53/71 117/55/73 118/56/74
f 118/56/75 117/55/76 120/57/77 121/58/78
f 121/58/78 120/57/77 123/59/79 124/60/80
f 124/60/80 123/59/79 126/61/81 127/62/82
f 127/62/82 126/61/81 129/63/83 130/64/84
f 130/64/84 129/63/83 132/65/85 133/66/86
f 133/66/86 132/65/85 135/67/87 136/68/88
f 136/68/88 135/67/87 138/69/89 139/70/90
f 92/71/91 90/72/91 88/73/91 86/74/91 84/75/91 82/76/91 80/77/91
f 139/70/90 138/69/89 95/78/58 94/79/58
f 61/80/92 63/81/92 65/82/92 67/83/92 69/84/92 71/85/92 73/86/92 75/87/92 77/88/92 79/89/92 81/90/92 83/91/92 85/92/92 87/93/92 89/94/92 91/95/92
f 62/96/93 64/97/94 96/41/59 95/40/58
f 140/98/95 139/70/90 94/79/58 93/99/96
f 91/100/97 140/98/95 93/99/96 61/101/98
f 92/102/99 62/103/93 95/78/58 138/69/89
f 137/104/100 136/68/88 139/70/90 140/98/95
f 89/105/101 137/104/100 140/98/95 91/100/97
f 90/106/102 92/102/99 138/69/89 135/67/87
f 134/107/103 133/66/86 136/68/88 137/104/100
f 87/108/104 134/107/103 137/104/100 89/105/101
f 88/109/105 90/106/102 135/67/87 132/65/85
f 131/110/106 130/64/84 133/66/86 134/107/103
f 85/111/107 131/110/106 134/107/103 87/108/104
f 86/112/108 88/109/105 132/65/85 129/63/83
f 128/113/109 127/62/82 130/64/84 131/110/106
f 83/114/110 128/113/109 131/110/106 85/111/107
f 84/115/111 86/112/108 129/63/83 126/61/81
f 125/116/112 124/60/80 127/62/82 128/113/109
f 81/117/113 125/116/112 128/113/109 83/114/110
f 82/118/114 84/115/111 126/61/81 123/59/79
f 122/119/115 121/58/78 124/60/80 125/116/112
f 79/120/116 122/119/115 125/116/112 81/117/113
f 80/121/117 82/118/114 123/59/79 120/57/77
f 119/122/118 118/56/75 121/58/78 122/119/115
f 77/123/119 119/122/118 122/119/115 79/120/116
f 78/124/120 80/121/117 120/57/77 117/55/76
f 116/125/121 115/54/72 118/56/74 119/122/122
f 75/126/123 116/125/121 119/122/122 77/123/124
f 76/127/125 78/124/126 117/55/73 114/53/71
f 113/128/127 112/52/70 115/54/72 116/125/121
f 73/129/128 113/128/127 116/125/121 75/126/123
f 74/130/129 76/127/125 114/53/71 111/51/69
f 110/131/130 109/50/68 112/52/70 113/128/127
f 71/132/131 110/131/130 113/128/127 73/129/128
f 72/133/132 74/130/129 111/51/69 108/49/67
f 107/134/133 106/48/66 109/50/68 110/131/130
f 69/135/134 107/134/133 110/131/130 71/132/131
f 70/136/135 72/133/132 108/49/67 105/47/65
f 104/137/136 103/46/64 106/48/66 107/134/133
f 67/138/137 104/137/136 107/134/133 69/135/134
f 68/139/138 70/136/135 105/47/65 102/45/63
f 101/140/139 100/44/62 103/46/64 104/137/136
f 65/141/140 101/140/139 104/137/136 67/138/137
f 66/142/141 68/139/138 102/45/63 99/43/61
f 98/143/142 97/42/60 100/44/62 101/140/139
f 63/144/143 98/143/142 101/140/139 65/141/140
f 64/97/94 66/142/141 99/43/61 96/41/59
f 93/145/96 94/39/58 97/42/60 98/143/142
f 61/146/98 93/145/96 98/143/142 63/144/143
f 62/147/91 92/71/91 80/77/91 78/148/91
f 64/149/91 62/147/91 78/148/91 76/150/91
f 66/151/91 64/149/91 76/150/91 74/152/91 72/153/91 70/154/91 68/155/91
